<svg width="174" height="91" viewBox="0 0 174 91" fill="none" xmlns="http://www.w3.org/2000/svg">
<path fill-rule="evenodd" clip-rule="evenodd" d="M96.0291 50.9706C98.0936 52.543 101.064 54.6253 104.091 56.7217C104.305 56.8811 104.52 57.0405 104.736 57.1999C105.789 57.9767 106.871 58.751 107.999 59.4739L108.429 59.7373L108.62 59.85C112.449 62.4982 115.615 64.7243 116.099 65.3482C116.585 65.9747 117.074 66.6277 117.512 67.2122L117.513 67.2131L117.513 67.2132C118.05 67.9311 118.51 68.5455 118.792 68.8805C118.44 69.213 118.103 69.603 117.782 70.0504C117.518 69.9164 117.245 69.7753 116.966 69.6299C116.829 69.203 116.599 68.8419 116.277 68.5468C115.95 68.2193 115.513 67.96 114.967 67.7689C114.455 67.5803 113.797 67.4848 112.992 67.4824C112.825 67.3899 112.666 67.3023 112.519 67.2209L112.519 67.2209L112.518 67.2207C111.848 66.8504 111.409 66.6077 111.376 66.6003L111.376 66.6001C111.24 66.5693 111.104 66.5381 110.966 66.51L110.465 66.3982C110.381 66.3775 110.3 66.3547 110.217 66.3317L110.217 66.3315L110.216 66.3315L110.216 66.3314C110.135 66.3086 110.052 66.2854 109.966 66.2642C109.841 66.2295 109.716 66.1964 109.591 66.1633L109.59 66.1632C109.387 66.1093 109.184 66.0554 108.982 65.9959C107.708 65.6183 106.463 65.1503 105.256 64.5952C105.402 64.5027 105.538 64.4006 105.663 64.2889C106.428 63.6066 106.81 62.7605 106.81 61.7506C106.81 60.9591 106.537 60.3313 105.991 59.8673C105.472 59.376 104.626 59.1304 103.453 59.1304C102.115 59.1304 101.051 59.4442 100.259 60.072C99.9319 60.3316 99.6723 60.6308 99.4803 60.9697C99.1422 60.7137 98.8078 60.4559 98.4765 60.1979C97.6541 59.5572 96.8467 58.9152 96.0539 58.2846L96.0209 58.2584C95.8274 58.1045 95.6347 57.9513 95.4429 57.799C94.9481 57.4101 94.4618 57.0177 93.9928 56.6385C93.8221 56.5032 93.6568 56.3661 93.4968 56.2334L93.4965 56.2332L93.4942 56.2312C93.468 56.2096 93.4421 56.188 93.4162 56.1666C93.3805 56.1371 93.3451 56.1078 93.31 56.0788L92.9988 55.8181L92.865 55.7027L92.8162 55.6591L92.804 55.6457L92.1097 55.1084L91.4376 54.6648C91.2877 54.5665 91.1397 54.4746 90.9922 54.3831L90.9878 54.3803L90.9871 54.3799C90.937 54.3488 90.887 54.3178 90.837 54.2865C90.4406 54.0394 90.0446 53.8093 89.6487 53.5844C88.8551 53.1345 88.0555 52.7207 87.2427 52.338C85.6221 51.5761 83.9451 50.9406 82.2266 50.4373C80.5018 49.9363 78.7472 49.5446 76.9731 49.2646C75.1976 48.9704 73.4018 48.7776 71.6005 48.6498C71.0642 48.6102 70.5272 48.5823 69.99 48.5661C68.2749 47.6548 68.1564 46.9106 69.3476 45.6539L69.9494 45.005L69.3758 44.3701C68.5242 43.448 68.0561 42.5724 68.0044 41.8032C67.9374 41.0346 68.0846 40.6854 68.7879 39.8952C69.257 39.3734 69.4061 39.2762 70.0611 39.0299C71.0403 38.6721 71.4349 38.4051 71.3196 38.1805C70.5225 36.676 70.4105 36.3366 70.3835 35.4138C70.3616 34.6282 70.4056 34.3745 70.6494 33.953C71.2165 32.9923 71.3389 32.5906 71.2065 32.1146C71.013 31.4348 70.9696 30.482 71.0833 29.6454C71.1002 29.51 71.1168 29.3832 71.1311 29.2733L71.1318 29.2682L71.132 29.2662L71.1322 29.2646C71.1619 29.037 71.182 28.8832 71.1767 28.8783C71.1719 28.8739 71.1065 28.7537 71.0083 28.573L71.0081 28.5727L71.0069 28.5705C70.9435 28.4539 70.8662 28.3118 70.7832 28.1602C70.3892 27.4269 69.7483 26.6266 68.117 24.8636C67.7219 24.4319 67.3667 24.0432 67.0468 23.6915C63.6813 23.6052 60.343 23.7953 57.06 24.2611C52.7145 24.8942 48.4695 25.9355 44.3701 27.3741C40.3196 28.7638 36.3851 30.4457 32.5904 32.4097C28.855 34.3191 25.2701 36.5146 21.8593 38.9818C21.3101 39.3988 20.7696 39.8334 20.2311 40.2664C19.9544 40.4889 19.6783 40.7109 19.4017 40.9299L19.3349 40.9842C19.2633 41.0422 19.1918 41.1 19.1203 41.1577L19.1195 41.1583C18.808 41.4098 18.498 41.66 18.1959 41.926L17.0393 42.9921C16.7945 43.2234 16.5485 43.4486 16.3038 43.6726L16.3037 43.6727C15.7761 44.1558 15.2542 44.6336 14.7615 45.1567L12.6152 47.4505C12.1167 47.97 11.6598 48.5496 11.205 49.1265L11.2049 49.1266L11.2045 49.127L11.2044 49.1273L11.2039 49.1279L11.2034 49.1285C11.0052 49.38 10.8073 49.6309 10.6066 49.8761L9.63062 51.1026L9.14568 51.7171L8.67852 52.3673C7.45741 54.0833 6.2953 55.831 5.25745 57.6838C5.14192 57.8865 5.02633 58.0864 4.91132 58.2853L4.91102 58.2858C4.50157 58.9937 4.09947 59.6889 3.73393 60.4575L2.35449 63.3375C1.94033 64.1922 1.58614 65.1123 1.23927 66.0135L1.12781 66.3027C0.744781 67.295 0.37894 68.312 0.0246124 69.3233L0.42928 69.7505C6.71066 66.0539 12.9645 63.122 19.4128 61.3284C19.2043 64.797 19.0083 67.7627 18.8249 70.2254C18.6612 72.7638 18.5111 74.9063 18.3746 76.6532C18.2381 78.4 18.1153 79.8056 18.0061 80.8701C17.9242 81.9346 17.856 82.7943 17.8014 83.4494C17.7468 84.1045 17.7059 84.6094 17.6786 84.9642C17.6513 85.3191 17.6376 85.6602 17.6376 85.9878C17.6376 86.6428 17.6922 87.2296 17.8014 87.7482C17.9379 88.2395 18.1562 88.6489 18.4565 88.9765C18.7567 89.304 19.1798 89.5633 19.7256 89.7544C20.2715 89.9181 20.9675 90 21.8136 90H23.2875C23.6424 90 23.8744 89.9454 23.9835 89.8362C24.0927 89.7271 24.1609 89.5087 24.1882 89.1812C24.2974 87.8711 24.4066 86.52 24.5158 85.128C24.6249 83.736 24.7341 82.3167 24.8433 80.8701C25.5802 82.2348 26.3035 83.504 27.0132 84.6776C27.7501 85.824 28.4734 86.8202 29.1831 87.6664C29.8927 88.5125 30.6024 89.1812 31.312 89.6725C32.0489 90.1638 32.7859 90.4094 33.5228 90.4094C34.1506 90.4094 34.6828 90.2456 35.1195 89.9181C35.5835 89.5906 35.9656 89.2085 36.2659 88.7718C36.5661 88.3351 36.7845 87.912 36.9209 87.5026C37.0574 87.0932 37.1256 86.8202 37.1256 86.6838C37.1256 86.52 36.8937 86.1788 36.4296 85.6602C35.9656 85.1416 35.3379 84.4729 34.5464 83.6541C33.7821 82.8353 32.8814 81.8936 31.8442 80.8292C30.8071 79.7647 29.7153 78.5911 28.5689 77.3082C31.1346 76.2165 33.0452 75.2339 34.3007 74.3605C35.5835 73.4871 36.2249 72.6546 36.2249 71.8631C36.2249 71.5355 36.1158 71.1125 35.8974 70.5939C35.7064 70.048 35.4471 69.5294 35.1195 69.0381C34.8193 68.5195 34.4918 68.0692 34.1369 67.6871C33.7821 67.3049 33.4546 67.1139 33.1544 67.1139C33.0452 67.1139 32.8814 67.1548 32.6631 67.2367C32.472 67.3186 32.2536 67.4687 32.008 67.6871L25.4574 73.6645C25.5393 72.4089 25.6212 71.208 25.7031 70.0616C25.8122 68.9153 25.8941 67.8918 25.9487 66.9911C26.0033 66.0631 26.0442 65.2852 26.0715 64.6574C26.1261 64.0024 26.1534 63.5384 26.1534 63.2654C26.1534 62.8014 26.0852 62.3511 25.9487 61.9143C25.8395 61.4776 25.6212 61.0955 25.2936 60.768C25.04 60.5144 24.7209 60.3016 24.3363 60.1298C24.4575 60.1072 24.5788 60.085 24.7003 60.0627L24.7005 60.0626C25.0471 59.999 25.395 59.9352 25.7436 59.862L27.023 59.6196C27.2399 59.5844 27.4557 59.5569 27.6733 59.5291C27.8874 59.5017 28.1032 59.4742 28.3235 59.4389C28.6527 59.3957 28.9794 59.3489 29.3054 59.3022C29.8352 59.2262 30.3633 59.1506 30.8976 59.091C34.3241 58.715 37.801 58.6172 41.3008 58.7982C41.4654 58.8103 41.6293 58.8218 41.7928 58.8333L41.7933 58.8333H41.7933C42.4991 58.8828 43.1969 58.9318 43.9167 59.0249C44.31 59.0757 44.7021 59.1316 45.0918 59.1871L45.0922 59.1872C45.581 59.2568 46.0662 59.326 46.546 59.3841C47.2103 59.4645 47.889 59.5907 48.563 59.7161L48.5636 59.7162C48.7644 59.7535 48.9647 59.7908 49.1641 59.8267L50.4622 60.0646L51.7737 60.3293C55.2476 61.1134 58.6768 62.0867 62.0391 63.099C64.7116 63.9036 67.3516 64.7279 69.9442 65.5375L69.9446 65.5376L69.9637 65.5436C70.6262 65.7504 71.2857 65.9564 71.9418 66.1607C73.414 66.611 74.8738 67.0766 76.2898 67.5311C75.4628 67.6445 75.0069 67.9557 74.922 68.4649C74.5945 70.2391 74.3352 71.6583 74.1441 72.7228C73.9804 73.7873 73.8303 74.6744 73.6938 75.384C73.5573 76.0936 73.4345 76.7078 73.3253 77.2263C73.2434 77.7449 73.1343 78.3454 72.9978 79.0278C72.8613 79.7101 72.6839 80.5562 72.4656 81.5661C72.2745 82.576 72.0152 83.9271 71.6877 85.6193C71.6058 84.5548 71.5103 83.2584 71.4011 81.7299C71.3192 80.2014 71.2237 78.7002 71.1145 77.2263C71.0326 75.7252 70.9507 74.3878 70.8689 73.2141C70.787 72.0405 70.7324 71.2626 70.7051 70.8805C70.6232 70.1708 70.4322 69.5976 70.1319 69.1609C69.8317 68.7242 69.395 68.3831 68.8218 68.1374C68.2759 67.8918 67.5799 67.728 66.7338 67.6461C65.8877 67.5369 64.8778 67.4824 63.7041 67.4824C63.322 67.4824 63.0081 67.5779 62.7625 67.7689C62.5169 67.96 62.394 68.1784 62.394 68.424C62.394 68.6423 62.7625 70.2391 63.4994 73.2141C64.2637 76.1892 65.3964 80.5972 66.8976 86.4381C67.0067 86.9021 67.1705 87.3525 67.3889 87.7892C67.6345 88.1986 67.9347 88.5671 68.2896 88.8946C68.6717 89.2221 69.1084 89.4951 69.5997 89.7134C70.1183 89.9045 70.7324 90 71.442 90H74.3079C74.69 90 74.9766 89.9727 75.1677 89.9181C75.386 89.8362 75.5634 89.6588 75.6999 89.3859C75.8091 89.1675 75.9456 88.6899 76.1093 87.9529C76.2731 87.1887 76.4505 86.288 76.6416 85.2508C76.8326 84.1864 77.0373 83.04 77.2557 81.8118C77.474 80.5835 77.6787 79.3826 77.8698 78.2089C78.0882 77.0353 78.2792 75.9435 78.443 74.9336C78.634 73.9238 78.7978 73.1186 78.9343 72.5181C79.1799 75.7115 79.4529 78.4819 79.7531 80.8292C80.0533 83.1765 80.3399 85.0461 80.6129 86.4381C80.6947 86.9294 80.8176 87.3934 80.9813 87.8301C81.1451 88.2395 81.3771 88.608 81.6773 88.9355C81.9776 89.2631 82.3733 89.5224 82.8646 89.7134C83.3559 89.9045 83.9837 90 84.7479 90H87.1634C87.682 90 88.0369 89.9181 88.2279 89.7544C88.4463 89.5906 88.6646 89.2631 88.883 88.7718C89.2105 87.9529 89.6063 86.984 90.0703 85.8649C90.5343 84.7459 91.0119 83.5722 91.5032 82.344C92.0218 81.0885 92.5267 79.8329 93.018 78.5774C93.5093 77.2946 93.946 76.0936 94.3281 74.9746C94.7103 73.8555 95.0242 72.8729 95.2698 72.0268C95.3113 71.8792 95.3493 71.7377 95.3839 71.6026C96.0656 71.659 96.7459 71.7072 97.4255 71.7473C97.8836 71.7739 98.3415 71.7968 98.7991 71.8158C98.6745 73.4806 98.5607 74.9566 98.4578 76.2438C98.3213 78.2635 98.1985 79.9421 98.0893 81.2795C97.9801 82.5896 97.8982 83.6268 97.8437 84.3911C97.8164 85.128 97.8027 85.7012 97.8027 86.1106C97.8027 86.7383 97.8573 87.2979 97.9665 87.7892C98.103 88.2532 98.3213 88.6489 98.6215 88.9765C98.9491 89.304 99.3721 89.5633 99.8907 89.7544C100.437 89.9181 101.133 90 101.979 90H103.453C103.807 90 104.039 89.9454 104.149 89.8362C104.258 89.7271 104.326 89.5087 104.353 89.1812C104.599 86.2334 104.804 83.7224 104.967 81.648C105.131 79.5463 105.254 77.7995 105.336 76.4075C105.445 74.9882 105.527 73.8692 105.582 73.0504C105.614 72.5663 105.637 72.1537 105.65 71.8127C107.206 71.7461 108.756 71.6343 110.298 71.4775C110.164 73.2813 110.041 74.8701 109.932 76.2438C109.795 78.2635 109.672 79.9421 109.563 81.2795C109.454 82.5896 109.372 83.6268 109.317 84.3911C109.29 85.128 109.276 85.7012 109.276 86.1106C109.276 86.7383 109.331 87.2979 109.44 87.7892C109.577 88.2532 109.795 88.6489 110.095 88.9765C110.423 89.304 110.846 89.5633 111.364 89.7544C111.91 89.9181 112.606 90 113.452 90H114.926C115.281 90 115.513 89.9454 115.622 89.8362C115.732 89.7271 115.8 89.5087 115.827 89.1812C116.073 85.7967 116.332 83.0264 116.605 80.8701C116.878 78.7139 117.219 77.0216 117.628 75.7934C118.065 74.5652 118.597 73.7191 119.225 73.2551C119.853 72.7911 120.644 72.5591 121.6 72.5591C122.582 72.5591 123.237 72.8456 123.565 73.4188C123.92 73.9647 124.097 74.5925 124.097 75.3021C124.097 75.9845 124.043 76.8306 123.933 77.8405C123.852 78.8503 123.756 79.9012 123.647 80.9929C123.565 82.0574 123.469 83.0809 123.36 84.0635C123.278 85.0188 123.237 85.7967 123.237 86.3972C123.237 86.9704 123.292 87.4889 123.401 87.9529C123.538 88.3896 123.756 88.7581 124.056 89.0583C124.356 89.3586 124.78 89.5906 125.325 89.7544C125.871 89.9181 126.581 90 127.454 90H128.764C129.228 90 129.529 89.9454 129.665 89.8362C129.802 89.6998 129.87 89.3313 129.87 88.7308C129.87 88.5125 129.897 88.0621 129.952 87.3798C130.006 86.6974 130.075 85.9059 130.156 85.0052C130.238 84.1045 130.32 83.1355 130.402 82.0984C130.511 81.0339 130.607 80.024 130.689 79.0687C130.771 78.0861 130.839 77.1854 130.893 76.3666C130.948 75.5478 130.975 74.92 130.975 74.4833C130.975 73.0913 130.839 71.9313 130.566 71.0033C130.293 70.048 129.87 69.2838 129.297 68.7106C128.985 68.3681 128.625 68.0834 128.216 67.8563C131.379 66.9312 134.5 65.8706 137.585 64.7167C141.873 63.1297 146.009 61.1837 149.961 58.8945C153.963 56.5494 157.662 53.6945 160.991 50.3817C162.666 48.7037 164.223 46.8904 165.651 44.954C167.085 43.0071 168.362 40.9195 169.469 38.711C170.019 37.6129 170.529 36.4798 170.937 35.297L170.974 35.1878C171.37 34.0417 171.764 32.8982 172.064 31.7082C172.231 31.1016 172.362 30.4797 172.494 29.8578C172.517 29.7459 172.541 29.6351 172.565 29.5248L172.565 29.5235L172.565 29.5231C172.673 29.0207 172.778 28.5297 172.853 28.0094C173.048 26.7548 173.174 25.4787 173.251 24.2102L172.784 23.8869C166.757 30.2292 159.721 33.1792 152.394 34.6042C150.561 34.956 148.697 35.2002 146.833 35.4055C144.97 35.6108 143.068 35.7015 141.176 35.7539C140.23 35.7801 139.269 35.7859 138.312 35.779C137.354 35.7721 136.41 35.7531 135.437 35.7258C133.5 35.6394 131.569 35.5275 129.623 35.3455C126.122 35.0026 122.568 34.4293 119.001 33.7318L118.995 33.7241C118.804 33.4736 118.576 33.4374 118.332 33.5996C118.157 33.5646 117.981 33.5293 117.806 33.4938C116.516 33.2322 115.226 32.9538 113.936 32.6659C113.366 31.2 112.952 30.0531 112.717 29.2944C112.388 28.1985 110.181 23.8711 108.472 20.9524C108.075 20.2772 107.442 19.2029 107.072 18.5786C105.521 15.9211 103.109 12.9231 100.071 9.85721C98.2398 8.01057 95.2135 5.50338 94.656 5.37259C94.4192 5.31645 94.8407 7.20599 95.3169 8.36218C95.8497 9.65 96.6964 11.0202 98.0592 12.814C99.1089 14.1972 99.404 14.7428 99.156 14.8139C98.9961 14.8661 98.5707 14.4533 96.6224 12.3809C93.1078 8.66585 92.7472 8.30968 90.0414 5.95916C87.1154 3.40258 86.0937 2.67434 83.6762 1.38432L82.5539 0.787518L82.7211 1.5777C82.9297 2.58224 83.616 4.16869 84.161 4.919C84.3985 5.23613 84.8454 5.72253 85.1615 5.99872C85.591 6.37407 85.7422 6.56096 85.7418 6.72504C85.7426 6.90397 85.8425 7.01866 86.2885 7.32613C86.6561 7.59248 86.8277 7.75605 86.8139 7.85364C86.8055 7.9286 86.981 8.13673 87.2228 8.33433C87.4647 8.53193 87.786 8.86754 87.9479 9.09123C88.1098 9.3149 88.6391 9.88698 89.1293 10.3565C89.6371 10.855 90.1946 11.4928 90.436 11.8545C90.6774 12.2162 91.2943 12.9334 91.8601 13.4963C92.4179 14.0521 92.9646 14.6532 93.0847 14.8266C93.1979 15.0078 94.031 15.8865 94.9263 16.7921C96.5347 18.403 97.4635 19.4338 97.4887 19.634C97.5152 19.849 96.832 20.1566 96.3608 20.156C95.4916 20.1366 95.4591 20.1083 90.0437 15.2807C83.4275 9.39006 80.5374 7.07045 77.0527 4.87533C75.7929 4.07609 74.2472 3.34228 74.1182 3.48994C74.057 3.55989 74.3997 4.55821 74.9848 6.01512C75.3386 6.88615 75.5314 7.20534 76.4341 8.36415C78.3732 10.8397 80.8247 13.6121 82.7385 15.4624C83.2044 15.9106 83.6568 16.3744 83.7337 16.4827C83.8929 16.6766 83.7948 16.9198 83.5742 16.8778C83.5133 16.8658 82.5617 16.2536 81.4561 15.5068C77.012 12.5284 74.1159 10.9846 71.4075 10.1257L70.5227 9.846L70.6051 10.4388C70.7142 11.1645 71.0794 11.8262 71.9902 12.9921C73.3127 14.6684 74.4658 15.8679 76.5784 17.7686C77.7171 18.8046 78.7193 19.7351 78.7962 19.8434C78.973 20.0664 78.8819 20.2197 78.5581 20.2795C78.3305 20.3273 77.8626 20.1104 74.5119 18.4161C71.982 17.1238 70.8297 16.6104 69.4783 16.1286C67.9728 15.5943 67.9088 15.7166 68.7189 17.6031C69.2653 18.8753 69.5987 19.2626 73.2743 23.0224C74.9582 24.7267 75.625 25.5012 76.0469 26.2125C76.1344 26.3573 76.216 26.4933 76.2832 26.6054L76.2874 26.6125C76.3926 26.7879 76.4626 26.9046 76.4675 26.9089C76.473 26.9136 76.461 27.0636 76.4432 27.2857L76.443 27.2872C76.4343 27.396 76.4242 27.5221 76.4141 27.6571C76.3442 28.4732 76.4339 29.4012 76.6569 30.062C76.81 30.5247 76.7101 30.9171 76.2026 31.8579C75.9849 32.2707 75.9544 32.5182 76.0146 33.2835C76.0867 34.1825 76.2131 34.5122 77.0677 35.9715C77.1917 36.1895 76.8186 36.4529 75.878 36.8096C75.2491 37.055 75.1081 37.151 74.6748 37.6633C74.0255 38.4391 73.8987 38.7805 74.0023 39.5289C74.091 40.278 74.5925 41.1273 75.4716 42.0187L76.0643 42.6326L75.5075 43.2699C74.4038 44.5042 74.5566 45.2284 76.2803 46.1021C76.8069 46.1135 77.3338 46.1362 77.8607 46.1704C79.63 46.2799 81.3971 46.453 83.1494 46.7248C84.8996 46.983 86.6363 47.3502 88.3491 47.824C90.056 48.3002 91.7288 48.9055 93.3525 49.6344C94.167 50.0007 94.9701 50.3972 95.769 50.829C95.8557 50.8759 95.9424 50.9231 96.0291 50.9706ZM117.175 70.497C117.195 70.637 117.21 70.7785 117.219 70.9214C117.318 70.7529 117.418 70.5904 117.52 70.4341C117.405 70.4553 117.29 70.4762 117.175 70.497ZM87.8515 70.6527C87.5075 70.5945 87.1619 70.5334 86.8146 70.4686C86.6567 70.4389 86.4991 70.4099 86.3413 70.3808L86.3411 70.3808L86.3401 70.3806C85.8904 70.2977 85.4392 70.2146 84.9752 70.1164L83.5483 69.8099C83.6357 70.0119 83.708 70.2323 83.7653 70.4711C83.8199 70.6621 83.8609 70.8532 83.8881 71.0442C83.9427 71.2353 83.9973 71.5082 84.0519 71.8631C84.1065 72.2179 84.1611 72.7092 84.2157 73.3369C84.2976 73.9647 84.3794 74.8108 84.4613 75.8753C84.5705 76.9398 84.6933 78.2635 84.8298 79.8466C84.9663 81.4296 85.1437 83.3539 85.362 85.6193C85.7169 83.6268 86.0171 81.8936 86.2627 80.4198C86.5357 78.9186 86.754 77.6221 86.9178 76.5303C87.1089 75.4386 87.259 74.4969 87.3681 73.7054C87.5046 72.9139 87.6138 72.2179 87.6957 71.6174C87.7559 71.2709 87.8079 70.9493 87.8515 70.6527ZM43.6913 89.6315C44.9468 90.1501 46.5162 90.4094 48.3995 90.4094C50.119 90.4094 51.6066 90.1911 52.8621 89.7544C54.1449 89.3176 55.2367 88.7308 56.1374 87.9939C57.0381 87.2569 57.775 86.4108 58.3482 85.4555C58.9487 84.5002 59.4127 83.5176 59.7402 82.5078C60.095 81.4979 60.327 80.488 60.4362 79.4781C60.5727 78.4409 60.6409 77.4993 60.6409 76.6532C60.6409 73.6235 59.8903 71.2762 58.3892 69.6113C56.9153 67.9191 54.4588 67.0729 51.0197 67.0729C48.6724 67.0729 46.7073 67.4551 45.1242 68.2193C43.5684 68.9562 42.3129 69.9388 41.3576 71.1671C40.4023 72.3953 39.72 73.8009 39.3106 75.384C38.9284 76.9398 38.7374 78.5365 38.7374 80.1741C38.7374 81.5934 38.8875 82.9308 39.1877 84.1864C39.488 85.4146 40.0066 86.4927 40.7435 87.4207C41.4804 88.3487 42.463 89.0856 43.6913 89.6315ZM47.8263 73.3369C48.4541 72.7911 49.2866 72.5181 50.3237 72.5181C51.552 72.5181 52.4117 72.9139 52.903 73.7054C53.4216 74.4696 53.6809 75.5341 53.6809 76.8988C53.6809 77.5266 53.6127 78.3045 53.4762 79.2325C53.367 80.1605 53.135 81.0475 52.7802 81.8936C52.4527 82.7398 51.975 83.4631 51.3473 84.0635C50.7468 84.664 49.9689 84.9642 49.0136 84.9642C47.9492 84.9642 47.1303 84.5412 46.5572 83.6951C45.984 82.8489 45.6974 81.5252 45.6974 79.7238C45.6974 79.1506 45.7383 78.4546 45.8202 77.6358C45.9294 76.7896 46.1341 75.9981 46.4343 75.2612C46.7619 74.4969 47.2259 73.8555 47.8263 73.3369ZM139.046 89.8362C140.029 90.2184 141.053 90.4094 142.117 90.4094C143.618 90.4094 144.86 90.0819 145.843 89.4268C146.853 88.7718 147.603 87.9256 148.094 86.8885C148.094 87.5162 148.19 88.0348 148.381 88.4442C148.599 88.8264 148.886 89.1402 149.241 89.3859C149.623 89.6042 150.06 89.768 150.551 89.8772C151.07 89.9591 151.615 90 152.189 90H153.662C154.045 90 154.277 89.9454 154.358 89.8362C154.44 89.7271 154.509 89.5087 154.563 89.1812C154.59 88.8809 154.631 88.2805 154.686 87.3798C154.768 86.4518 154.863 85.36 154.973 84.1045C155.082 82.8216 155.191 81.4296 155.3 79.9285L155.628 75.3431C155.737 73.7873 155.846 72.2861 155.955 70.8395C156.064 69.3929 156.16 68.1101 156.242 66.9911C156.324 65.8447 156.392 64.9304 156.446 64.248L156.528 63.2245C156.528 62.7605 156.46 62.3238 156.324 61.9143C156.187 61.4776 155.955 61.0955 155.628 60.768C155.3 60.4405 154.863 60.1812 154.318 59.9901C153.772 59.7991 153.089 59.7035 152.27 59.7035H150.674C150.455 59.7035 150.305 59.7172 150.223 59.7445C150.142 59.7445 150.073 59.7718 150.019 59.8264C149.91 59.9355 149.841 60.2904 149.814 60.8908C149.759 61.7642 149.705 62.5421 149.65 63.2245L149.486 65.2715C149.459 65.9539 149.418 66.6908 149.364 67.4824C149.309 68.2739 149.254 69.2019 149.2 70.2663C148.982 69.0927 148.449 68.2739 147.603 67.8099C146.784 67.3186 145.693 67.0729 144.328 67.0729C142.909 67.0729 141.667 67.2913 140.602 67.728C139.565 68.1647 138.664 68.7515 137.9 69.4885C137.163 70.1981 136.549 71.0169 136.058 71.9449C135.566 72.8729 135.184 73.8282 134.911 74.8108C134.638 75.7934 134.447 76.776 134.338 77.7586C134.229 78.7139 134.174 79.5873 134.174 80.3788C134.174 82.1529 134.379 83.6678 134.789 84.9233C135.225 86.1788 135.798 87.216 136.508 88.0348C137.245 88.8536 138.091 89.4541 139.046 89.8362ZM142.567 74.3605C143.25 73.1322 144.287 72.5181 145.679 72.5181C146.361 72.5181 146.921 72.6682 147.358 72.9685C147.794 73.2687 148.135 73.6645 148.381 74.1558C148.627 74.6471 148.79 75.2202 148.872 75.8753C148.954 76.5031 148.995 77.1581 148.995 77.8405C148.995 80.2969 148.599 82.0984 147.808 83.2447C147.016 84.3911 146.034 84.9642 144.86 84.9642C144.205 84.9642 143.659 84.8005 143.222 84.4729C142.813 84.1454 142.486 83.7087 142.24 83.1628C141.994 82.6169 141.817 82.0028 141.708 81.3205C141.626 80.6381 141.585 79.9421 141.585 79.2325C141.585 77.1854 141.912 75.5614 142.567 74.3605Z" fill="url(#paint0_linear_2_43)"/>
<defs>
<linearGradient id="paint0_linear_2_43" x1="-42.1225" y1="5.28387" x2="-21.5655" y2="134.268" gradientUnits="userSpaceOnUse">
<stop offset="0.25" stop-color="#F6969C"/>
<stop offset="0.447917" stop-color="#F970D2"/>
<stop offset="0.78" stop-color="#EBBDCD"/>
</linearGradient>
</defs>
</svg>
