<svg width="174" height="72" viewBox="0 0 174 72" fill="none" xmlns="http://www.w3.org/2000/svg">
<path fill-rule="evenodd" clip-rule="evenodd" d="M104.091 56.7217C101.064 54.6253 98.0936 52.543 96.0291 50.9706C95.9424 50.9231 95.8557 50.8759 95.769 50.829C94.9701 50.3972 94.167 50.0007 93.3525 49.6344C91.7288 48.9055 90.056 48.3002 88.3491 47.824C86.6363 47.3502 84.8996 46.983 83.1494 46.7248C81.3971 46.453 79.63 46.2799 77.8607 46.1704C77.3338 46.1362 76.8069 46.1135 76.2803 46.1021C74.5566 45.2284 74.4038 44.5042 75.5075 43.2699L76.0643 42.6326L75.4716 42.0187C74.5925 41.1273 74.091 40.278 74.0023 39.5289C73.8987 38.7805 74.0255 38.4391 74.6748 37.6633C75.1081 37.151 75.2491 37.055 75.878 36.8096C76.8187 36.4529 77.1917 36.1895 77.0677 35.9715C76.2131 34.5122 76.0867 34.1825 76.0147 33.2835C75.9544 32.5182 75.9849 32.2707 76.2026 31.8579C76.7101 30.9171 76.81 30.5247 76.6569 30.062C76.4339 29.4012 76.3442 28.4732 76.4141 27.6571C76.4242 27.5221 76.4343 27.396 76.443 27.2872L76.4432 27.2857C76.461 27.0636 76.473 26.9136 76.4675 26.9089C76.4626 26.9046 76.3926 26.7879 76.2874 26.6125L76.2832 26.6054C76.216 26.4933 76.1344 26.3573 76.0469 26.2125C75.625 25.5012 74.9582 24.7267 73.2743 23.0224C69.5987 19.2626 69.2653 18.8753 68.7189 17.6031C67.9088 15.7166 67.9728 15.5943 69.4783 16.1286C70.8297 16.6104 71.982 17.1238 74.5119 18.4161C77.8626 20.1104 78.3305 20.3273 78.5581 20.2795C78.8819 20.2197 78.973 20.0664 78.7962 19.8434C78.7193 19.7351 77.7171 18.8046 76.5784 17.7686C74.4658 15.8679 73.3127 14.6684 71.9902 12.9921C71.0794 11.8262 70.7142 11.1645 70.6051 10.4388L70.5227 9.846L71.4075 10.1257C74.1159 10.9846 77.012 12.5284 81.4561 15.5068C82.5617 16.2536 83.5133 16.8658 83.5742 16.8778C83.7948 16.9198 83.8929 16.6766 83.7337 16.4827C83.6568 16.3744 83.2044 15.9106 82.7385 15.4624C80.8247 13.6121 78.3732 10.8397 76.4341 8.36415C75.5314 7.20534 75.3386 6.88615 74.9848 6.01512C74.3997 4.55821 74.057 3.55989 74.1182 3.48994C74.2472 3.34228 75.7929 4.07609 77.0527 4.87533C80.5374 7.07045 83.4275 9.39006 90.0437 15.2807C95.4591 20.1083 95.4916 20.1366 96.3608 20.156C96.832 20.1566 97.5152 19.849 97.4887 19.634C97.4635 19.4338 96.5347 18.403 94.9263 16.7921C94.031 15.8865 93.1979 15.0078 93.0847 14.8266C92.9646 14.6532 92.4179 14.0521 91.8601 13.4963C91.2943 12.9334 90.6774 12.2162 90.436 11.8545C90.1946 11.4928 89.6371 10.855 89.1293 10.3565C88.6391 9.88698 88.1098 9.3149 87.9479 9.09123C87.786 8.86754 87.4647 8.53193 87.2228 8.33433C86.981 8.13673 86.8055 7.9286 86.8139 7.85364C86.8277 7.75605 86.6561 7.59248 86.2885 7.32613C85.8425 7.01866 85.7426 6.90397 85.7418 6.72504C85.7422 6.56096 85.591 6.37407 85.1615 5.99872C84.8454 5.72253 84.3985 5.23613 84.161 4.919C83.616 4.16869 82.9297 2.58224 82.7211 1.5777L82.5539 0.787518L83.6762 1.38432C86.0937 2.67434 87.1154 3.40258 90.0414 5.95916C92.7472 8.30968 93.1078 8.66585 96.6224 12.3809C98.5707 14.4533 98.9961 14.8661 99.156 14.8139C99.404 14.7428 99.1089 14.1972 98.0592 12.814C96.6964 11.0202 95.8497 9.65 95.3169 8.36218C94.8407 7.20599 94.4192 5.31645 94.656 5.37259C95.2135 5.50338 98.2398 8.01057 100.071 9.85721C103.109 12.9231 105.521 15.9211 107.072 18.5786C107.442 19.2029 108.075 20.2772 108.472 20.9524C110.181 23.8711 112.388 28.1985 112.717 29.2944C112.952 30.0531 113.366 31.2 113.936 32.6659C115.226 32.9538 116.516 33.2322 117.806 33.4938C117.981 33.5293 118.157 33.5646 118.332 33.5996C118.576 33.4374 118.804 33.4736 118.995 33.7241C118.997 33.7267 118.999 33.7292 119.001 33.7318C122.568 34.4293 126.122 35.0026 129.623 35.3455C131.569 35.5275 133.5 35.6394 135.437 35.7258C136.41 35.7531 137.354 35.7721 138.312 35.779C139.269 35.7859 140.23 35.7801 141.176 35.7539C143.068 35.7015 144.97 35.6108 146.833 35.4055C148.697 35.2002 150.561 34.956 152.394 34.6042C159.721 33.1792 166.757 30.2292 172.784 23.8869L173.251 24.2102C173.174 25.4787 173.048 26.7548 172.853 28.0094C172.778 28.5297 172.673 29.0207 172.565 29.5231L172.565 29.5235L172.565 29.5248C172.541 29.6351 172.517 29.7459 172.494 29.8578C172.362 30.4797 172.231 31.1016 172.064 31.7082C171.764 32.8982 171.37 34.0417 170.974 35.1878L170.937 35.297C170.529 36.4798 170.019 37.6129 169.469 38.711C168.362 40.9195 167.085 43.0071 165.651 44.954C164.223 46.8904 162.666 48.7037 160.991 50.3817C157.662 53.6945 153.963 56.5494 149.961 58.8945C146.009 61.1837 141.873 63.1297 137.585 64.7167C133.333 66.3069 129.012 67.7201 124.61 68.8454C123.648 69.1003 122.964 69.1831 122.239 69.2707C121.679 69.3384 121.095 69.4091 120.339 69.5645C119.84 69.5339 119.419 69.3797 118.872 68.9736C118.603 68.6691 118.105 68.0038 117.513 67.2132L117.513 67.2131L117.512 67.2122C117.074 66.6277 116.585 65.9747 116.099 65.3482C115.615 64.7243 112.449 62.4982 108.62 59.85L108.429 59.7373L107.999 59.4739C106.871 58.751 105.789 57.9767 104.736 57.1999C104.52 57.0405 104.305 56.8811 104.091 56.7217ZM57.06 24.2611C60.343 23.7953 63.6813 23.6052 67.0468 23.6915C67.3667 24.0432 67.7219 24.4319 68.117 24.8636C69.7483 26.6266 70.3892 27.4269 70.7832 28.1602C70.8662 28.3118 70.9435 28.4539 71.0069 28.5705L71.0081 28.5727C71.1064 28.7536 71.1719 28.8739 71.1767 28.8783C71.182 28.8832 71.1619 29.037 71.1322 29.2646L71.132 29.2662L71.1318 29.2682L71.1311 29.2733C71.1168 29.3832 71.1002 29.51 71.0833 29.6454C70.9696 30.482 71.013 31.4348 71.2065 32.1146C71.3389 32.5906 71.2165 32.9923 70.6494 33.953C70.4056 34.3745 70.3617 34.6281 70.3835 35.4138C70.4105 36.3366 70.5225 36.676 71.3196 38.1805C71.4349 38.4051 71.0403 38.6721 70.0611 39.0299C69.4061 39.2762 69.257 39.3734 68.7879 39.8952C68.0846 40.6854 67.9374 41.0346 68.0044 41.8032C68.0561 42.5724 68.5242 43.448 69.3758 44.3701L69.9494 45.005L69.3476 45.6539C68.1564 46.9106 68.2749 47.6548 69.99 48.5661C70.5272 48.5823 71.0642 48.6102 71.6005 48.6499C73.4018 48.7776 75.1976 48.9704 76.9731 49.2646C78.7472 49.5446 80.5018 49.9363 82.2266 50.4373C83.9451 50.9406 85.6221 51.5761 87.2427 52.338C88.0555 52.7207 88.8551 53.1345 89.6487 53.5844C90.0446 53.8093 90.4406 54.0394 90.837 54.2865C90.887 54.3178 90.937 54.3488 90.9871 54.3799L90.9878 54.3803L90.9922 54.3831C91.1397 54.4746 91.2877 54.5665 91.4376 54.6648L92.1097 55.1084L92.804 55.6457L92.8162 55.6591L92.865 55.7027L92.9988 55.8181L93.31 56.0788C93.3705 56.1287 93.432 56.1796 93.4942 56.2312L93.4965 56.2332L93.4968 56.2334C93.6568 56.3661 93.8221 56.5032 93.9928 56.6385C94.4618 57.0177 94.9481 57.4101 95.4429 57.799C95.6456 57.96 95.8493 58.1219 96.0539 58.2846C96.8467 58.9152 97.6541 59.5572 98.4765 60.1979C99.5112 61.0039 100.577 61.8076 101.691 62.559L102.117 62.833L102.542 63.0966C102.608 63.137 102.674 63.1782 102.74 63.2191C102.96 63.3565 103.182 63.4949 103.407 63.6169C103.57 63.7051 103.733 63.798 103.897 63.8912C104.027 63.9652 104.158 64.0398 104.291 64.1129C104.533 64.247 104.776 64.3642 105.021 64.4828L105.021 64.4829L105.024 64.4844L105.029 64.4866C105.083 64.5128 105.137 64.5392 105.192 64.5658C106.419 65.1337 107.685 65.6117 108.982 65.9959C109.184 66.0555 109.387 66.1094 109.591 66.1633C109.716 66.1964 109.841 66.2295 109.966 66.2642C110.052 66.2854 110.135 66.3086 110.216 66.3314L110.216 66.3315L110.217 66.3315C110.299 66.3546 110.381 66.3775 110.465 66.3982L110.966 66.51C111.104 66.5382 111.241 66.5694 111.376 66.6003C111.409 66.6077 111.848 66.8504 112.518 67.2207L112.519 67.2209C113.952 68.0126 116.44 69.3875 118.266 70.2936C115.934 70.7422 113.579 71.1045 111.205 71.3799C106.67 71.8944 102.063 72.0172 97.4255 71.7473C95.0987 71.6102 92.7627 71.3776 90.3954 71.0436C89.2136 70.8757 88.0252 70.6944 86.8146 70.4686C86.6567 70.4389 86.4991 70.4099 86.3413 70.3808L86.3411 70.3808C85.8911 70.2979 85.4395 70.2147 84.9752 70.1164L82.8918 69.6689L80.64 68.9992L80.5953 68.9769L80.43 68.9146L79.981 68.7544L78.9468 68.4016C78.744 68.3345 78.538 68.2654 78.3291 68.1954L78.3291 68.1953C77.7988 68.0176 77.2507 67.8338 76.6931 67.6605C75.1517 67.1655 73.5542 66.6538 71.9418 66.1607C71.2794 65.9544 70.6136 65.7465 69.9446 65.5376L69.9442 65.5375C67.3516 64.7279 64.7116 63.9036 62.0391 63.099C58.6768 62.0867 55.2476 61.1134 51.7737 60.3293L50.4622 60.0646L49.1641 59.8267C48.9647 59.7908 48.7644 59.7535 48.5636 59.7162L48.563 59.7161C47.889 59.5907 47.2103 59.4645 46.546 59.3841C46.0661 59.3259 45.5807 59.2568 45.0918 59.1871C44.7021 59.1316 44.31 59.0757 43.9167 59.0249C43.1969 58.9318 42.4991 58.8828 41.7933 58.8333C41.6297 58.8218 41.4656 58.8103 41.3007 58.7982C37.801 58.6172 34.3241 58.715 30.8976 59.091C30.3633 59.1506 29.8352 59.2263 29.3054 59.3022C28.9794 59.3489 28.6527 59.3957 28.3235 59.4389C28.1032 59.4742 27.8874 59.5017 27.6733 59.5291C27.4557 59.5569 27.2399 59.5844 27.023 59.6196L25.7436 59.862C25.395 59.9352 25.0471 59.999 24.7005 60.0626L24.7003 60.0627C24.1838 60.1574 23.6701 60.2517 23.1609 60.3756L20.6008 61.0115C13.7309 62.7655 7.09565 65.8273 0.42928 69.7505L0.0246106 69.3233C0.37894 68.312 0.744781 67.295 1.12781 66.3027L1.23927 66.0134C1.58614 65.1123 1.94033 64.1922 2.35449 63.3375L3.73393 60.4575C4.09947 59.6889 4.50157 58.9937 4.91102 58.2858L4.91132 58.2853C5.02633 58.0864 5.14192 57.8865 5.25745 57.6838C6.2953 55.831 7.45741 54.0833 8.67852 52.3673L9.14568 51.7171L9.63062 51.1026L10.6066 49.8761C10.8075 49.6307 11.0055 49.3796 11.2039 49.1279L11.2044 49.1273L11.2045 49.1271L11.2049 49.1266L11.205 49.1265C11.6598 48.5496 12.1167 47.97 12.6152 47.4505L14.7615 45.1567C15.2542 44.6336 15.7761 44.1558 16.3037 43.6727C16.5485 43.4486 16.7944 43.2234 17.0393 42.9921L18.1959 41.926C18.498 41.66 18.808 41.4098 19.1195 41.1583L19.1203 41.1577C19.1918 41.1 19.2633 41.0422 19.3349 40.9842L19.4017 40.9299C19.6783 40.7109 19.9544 40.4889 20.2311 40.2664C20.7696 39.8334 21.3101 39.3989 21.8593 38.9818C25.2701 36.5146 28.855 34.3191 32.5904 32.4097C36.3851 30.4457 40.3196 28.7638 44.3701 27.3741C48.4695 25.9355 52.7145 24.8942 57.06 24.2611Z" fill="url(#paint0_linear_2_44)"/>
<defs>
<linearGradient id="paint0_linear_2_44" x1="160.199" y1="97.558" x2="0.769608" y2="-30.9464" gradientUnits="userSpaceOnUse">
<stop offset="0.25" stop-color="#F6969C"/>
<stop offset="0.447917" stop-color="#F970D2"/>
<stop offset="0.78" stop-color="#EBBDCD"/>
</linearGradient>
</defs>
</svg>
